<svg width="182" height="105" viewBox="0 0 182 105" fill="none" xmlns="http://www.w3.org/2000/svg">
<g filter="url(#filter0_d_292_993)">
<g filter="url(#filter1_i_292_993)">
<path d="M38 40C38 36.134 41.134 33 45 33H46C49.866 33 53 36.134 53 40V40C53 43.866 49.866 47 46 47H45C41.134 47 38 43.866 38 40V40Z" fill="#F4EFE9" fill-opacity="0.8"/>
</g>
<g filter="url(#filter2_d_292_993)">
<path d="M46 52.7685V47.2479L52.3066 43.0013H58.4161V49.7959H61.7664V32.8095L64.3285 29.8369H70.2409V47.8849H73.3942L74.9708 46.6233V32.3972L78.0255 29.8369H82.0657V36.6314L85.8102 33.2342H100V38.1178L97.2409 40.6397H87.4419L82.0657 46.0411H97.2409V51.0271L94.2847 53.9363V75.2479H98.0292V80.9807L90.7372 88.8369H84.8248V82.467H74.3796V56.3781H70.2409V82.9192L67.8759 87.5904H61.7664V56.3781H58.4161L55.3613 59.563H50.1387V52.7685H46Z" fill="url(#paint0_linear_292_993)"/>
<path d="M52.3066 52.7685V47.2479M52.3066 52.7685L55.3613 50.0082V59.563M52.3066 52.7685H50.1387M52.3066 47.2479H46M52.3066 47.2479L58.4161 43.0013M46 47.2479V52.7685H50.1387M46 47.2479L52.3066 43.0013H58.4161M58.4161 43.0013V49.7959H61.7664V32.8095M61.7664 32.8095H67.8759M61.7664 32.8095L64.3285 29.8369H70.2409M67.8759 32.8095V49.7959H74.9708L79.1095 46.6233V32.3972M67.8759 32.8095L70.2409 29.8369M55.3613 59.563H50.1387V52.7685M55.3613 59.563L58.4161 56.3781H61.7664V87.5904H67.8759M67.8759 87.5904V56.3781H70.2409M67.8759 87.5904L70.2409 82.9192V56.3781M90.7372 52.7685V88.8369M90.7372 52.7685L97.2409 46.0411M90.7372 52.7685H84.8248M84.8248 52.7685L87.4419 49.7959H82.6569L77.927 53.9363M84.8248 52.7685V54.7665M90.7372 88.8369H84.8248V82.467M90.7372 88.8369L98.0292 80.9807V75.2479M97.2409 46.0411H82.0657L87.4419 40.6397H97.2409M97.2409 46.0411V51.0271L94.2847 53.9363V75.2479M97.2409 40.6397V35.8616M97.2409 40.6397L100 38.1177V33.2342M97.2409 35.8616H86.9927L82.0657 40.6397C82.0657 40.6397 82.0657 38.4557 82.0657 36.6314M97.2409 35.8616L100 33.2342M82.0657 29.8369C80.4494 30.9978 79.1095 32.3972 79.1095 32.3972M82.0657 29.8369C80.9112 29.8369 78.0255 29.8369 78.0255 29.8369L74.9708 32.3972M82.0657 29.8369C82.0657 30.9978 82.0657 35.4706 82.0657 36.6314M79.1095 32.3972H74.9708M70.2409 29.8369V47.8849H73.3942L74.9708 46.6233V32.3972M98.0292 75.2479L94.2847 79.4944V75.2479M98.0292 75.2479H94.2847M82.6569 75.2479V54.7665H84.8248M82.6569 75.2479H84.8248M82.6569 75.2479L77.927 79.4944M84.8248 79.4944H77.927M84.8248 79.4944V75.2479M84.8248 79.4944V82.467M77.927 79.4944V54.7665V53.9363M77.927 53.9363L74.9708 56.3781H74.3796M84.8248 75.2479V54.7665M74.3796 56.3781V82.467H84.8248M74.3796 56.3781H70.2409M100 33.2342H85.8102C85.8102 33.2342 83.528 35.3047 82.0657 36.6314" stroke="#F4EFE9"/>
</g>
<g filter="url(#filter3_d_292_993)">
<path d="M128.15 74.9743L108.914 84.9401L106.099 84.1096V81.5144L103.284 83.0715L100 81.6182V77.6734L105.778 74.3057L109 72.5L112.902 73.9778L127.5 67L136.126 69.9914V74.1439L132.138 76.2201L128.15 74.9743Z" fill="url(#paint1_linear_292_993)"/>
<path d="M108.914 84.9401L128.15 74.9743L132.138 76.2201M108.914 84.9401V79.9572L106.099 81.5144M108.914 84.9401L106.099 84.1096V81.5144M103.284 83.0715V78.9191M103.284 83.0715L100 81.6182V77.6734M103.284 83.0715L106.099 81.5144M103.284 78.9191L100 77.6734M103.284 78.9191L107.272 76.6353L112.902 73.9778M132.138 72.0677L128.15 70.6143L112.902 78.9191V76.4277V73.9778M132.138 72.0677V76.2201M132.138 72.0677L136.126 69.9914M132.138 76.2201L136.126 74.1439V69.9914M136.126 69.9914L127.5 67L112.902 73.9778M100 77.6734L105.778 74.3057L109 72.5L112.902 73.9778" stroke="#F4EFE9"/>
<path d="M118.815 73.2286L117.346 72.687L116 72.1905V70.7787V69.2838L120.223 67L121.869 67.6622L122.803 68.0381V69.715V70.9448L118.815 73.2286Z" fill="url(#paint2_linear_292_993)"/>
<path d="M116 69.2838L118.815 70.3219M116 69.2838L120.223 67L121.869 67.6622L122.803 68.0381M116 69.2838V70.7787V72.1905L117.346 72.687L118.815 73.2286M118.815 70.3219V73.2286M118.815 70.3219L122.803 68.0381M118.815 73.2286L122.803 70.9448V69.715V68.0381" stroke="#F4EFE9"/>
<path d="M128.841 62.8006L106.488 75.1338L103.643 73.8642V70.4182L122.677 60.0801V58.6511L103.033 69.6927L99.9854 68.0604V64.9771L122.677 52.8253V51.4348L105.878 60.8056L102.627 59.3546V55.9086L125.386 43.5754L128.841 44.3009V52.0998L131.889 50.6489V54.639L128.841 56.2713V62.8006Z" fill="url(#paint3_linear_292_993)"/>
<path d="M105.878 60.8056V57.1782M105.878 60.8056L102.627 59.3546V55.9086M105.878 60.8056L122.677 51.4348M125.386 53.9135L103.033 66.428M125.386 53.9135V49.9234L122.677 51.4348M125.386 53.9135L122.677 52.8253M103.033 66.428V69.6927M103.033 66.428L99.9854 64.9771M103.033 69.6927L99.9854 68.0604V64.9771M103.033 69.6927L122.677 58.6511M125.386 61.3497V57.1782L122.677 58.6511M125.386 61.3497L106.488 71.8691M125.386 61.3497L122.677 60.0801M106.488 71.8691V75.1338M106.488 71.8691L103.643 70.4182M106.488 75.1338L128.841 62.8006V56.2713L131.889 54.639V50.6489L128.841 52.0998V44.3009M106.488 75.1338L103.643 73.8642V70.4182M128.841 44.3009L105.878 57.1782M128.841 44.3009L125.386 43.5754L102.627 55.9086M105.878 57.1782L102.627 55.9086M99.9854 64.9771L122.677 52.8253M122.677 52.8253V51.4348M122.677 60.0801V58.6511M122.677 60.0801L103.643 70.4182" stroke="#F4EFE9"/>
<path d="M113.066 48.2732L103.634 53.126L99.9854 51.8679V47.9138L105.83 45.0381V39.1252L104.243 40.1853L99.9854 38.3488V33.4448L104.717 30.9929V25.8069L108.892 23.6501L113.066 25.0915V34.1638L117.241 32.1663V18.977L121.416 17L125.058 18.4379V18.977L127.759 17.5392L129.989 18.4379V22.0325L125.869 24.0095V25.0915L132.827 27.4292V32.2189L126.596 35.5123C127.784 35.8535 130.597 36.7705 130.597 36.7705V40.5958L121.416 45.7047L117.241 44.2335V40.5958L113.066 42.7623V45.4595V48.2732Z" fill="url(#paint4_linear_292_993)"/>
<path d="M104.243 35.5123L108.892 32.9961V30.2573V27.4292M104.243 35.5123V40.1853M104.243 35.5123L99.9854 33.4448M108.892 27.4292L113.066 25.0915M108.892 27.4292L104.717 25.8069M113.066 25.0915L108.892 23.6501L104.717 25.8069M113.066 25.0915V34.1638M113.066 34.1638L117.241 32.1663M113.066 34.1638V37.8417L132.827 27.4292M104.243 40.1853L99.9854 38.3488V33.4448M104.243 40.1853L105.83 39.1252M103.634 49.1719L109.17 46.326V44.4787V37.1228L105.83 39.1252M103.634 49.1719V53.126M103.634 49.1719L99.9854 47.9138M103.634 53.126L113.066 48.2732V45.4595V42.7623L117.241 40.5958M103.634 53.126L99.9854 51.8679V47.9138M132.827 27.4292L125.869 25.0915V24.0095L129.989 22.0325V18.4379M132.827 27.4292V32.2189L125.869 35.8968M99.9854 47.9138L105.83 45.0381V39.1252M99.9854 33.4448L104.717 30.9929V25.8069M125.058 18.4379L121.416 17L117.241 18.977M125.058 18.4379L121.416 20.4149M125.058 18.4379V18.977M117.241 18.977L121.416 20.4149M117.241 18.977V32.1663M121.416 20.4149V27.2983L124.478 28.2791L117.241 32.1663M117.241 40.5958V44.2335L121.416 45.7047M117.241 40.5958L121.416 38.3488M121.416 45.7047V38.3488M121.416 45.7047L130.597 40.5958V36.7705M121.416 38.3488L125.869 35.8968M125.869 35.8968V39.4723L130.597 36.7705M130.597 36.7705C130.597 36.7705 127.784 35.8535 126.596 35.5123M129.989 18.4379L125.058 21.1338V18.977M129.989 18.4379L127.759 17.5392L125.058 18.977" stroke="#F4EFE9"/>
</g>
<g filter="url(#filter4_i_292_993)">
<path d="M136 55.5C136 50.8056 139.806 47 144.5 47H145.5C150.194 47 154 50.8056 154 55.5V55.5C154 60.1944 150.194 64 145.5 64H144.5C139.806 64 136 60.1944 136 55.5V55.5Z" fill="#F4EFE9" fill-opacity="0.8"/>
</g>
<g filter="url(#filter5_i_292_993)">
<path d="M76 17C76 14.2386 78.2386 12 81 12H82C84.7614 12 87 14.2386 87 17V17C87 19.7614 84.7614 22 82 22H81C78.2386 22 76 19.7614 76 17V17Z" fill="#F4EFE9" fill-opacity="0.8"/>
</g>
<g filter="url(#filter6_i_292_993)">
<path d="M87 87.5C87 82.2533 91.2533 78 96.5 78H97.5C102.747 78 107 82.2533 107 87.5V87.5C107 92.7467 102.747 97 97.5 97H96.5C91.2533 97 87 92.7467 87 87.5V87.5Z" fill="#F4EFE9" fill-opacity="0.8"/>
</g>
</g>
<defs>
<filter id="filter0_d_292_993" x="-4" y="0" width="190" height="108" filterUnits="userSpaceOnUse" color-interpolation-filters="sRGB">
<feFlood flood-opacity="0" result="BackgroundImageFix"/>
<feColorMatrix in="SourceAlpha" type="matrix" values="0 0 0 0 0 0 0 0 0 0 0 0 0 0 0 0 0 0 127 0" result="hardAlpha"/>
<feOffset dy="4"/>
<feGaussianBlur stdDeviation="2"/>
<feComposite in2="hardAlpha" operator="out"/>
<feColorMatrix type="matrix" values="0 0 0 0 0 0 0 0 0 0 0 0 0 0 0 0 0 0 0.25 0"/>
<feBlend mode="normal" in2="BackgroundImageFix" result="effect1_dropShadow_292_993"/>
<feBlend mode="normal" in="SourceGraphic" in2="effect1_dropShadow_292_993" result="shape"/>
</filter>
<filter id="filter1_i_292_993" x="38" y="32" width="19" height="15" filterUnits="userSpaceOnUse" color-interpolation-filters="sRGB">
<feFlood flood-opacity="0" result="BackgroundImageFix"/>
<feBlend mode="normal" in="SourceGraphic" in2="BackgroundImageFix" result="shape"/>
<feColorMatrix in="SourceAlpha" type="matrix" values="0 0 0 0 0 0 0 0 0 0 0 0 0 0 0 0 0 0 127 0" result="hardAlpha"/>
<feOffset dx="4" dy="-1"/>
<feGaussianBlur stdDeviation="2.1"/>
<feComposite in2="hardAlpha" operator="arithmetic" k2="-1" k3="1"/>
<feColorMatrix type="matrix" values="0 0 0 0 0.0330992 0 0 0 0 0.248246 0 0 0 0 0.284104 0 0 0 0.33 0"/>
<feBlend mode="normal" in2="shape" result="effect1_innerShadow_292_993"/>
</filter>
<filter id="filter2_d_292_993" x="36.6" y="22.4369" width="64.8" height="69.8" filterUnits="userSpaceOnUse" color-interpolation-filters="sRGB">
<feFlood flood-opacity="0" result="BackgroundImageFix"/>
<feColorMatrix in="SourceAlpha" type="matrix" values="0 0 0 0 0 0 0 0 0 0 0 0 0 0 0 0 0 0 127 0" result="hardAlpha"/>
<feOffset dx="-4" dy="-2"/>
<feGaussianBlur stdDeviation="2.45"/>
<feComposite in2="hardAlpha" operator="out"/>
<feColorMatrix type="matrix" values="0 0 0 0 0 0 0 0 0 0 0 0 0 0 0 0 0 0 0.25 0"/>
<feBlend mode="normal" in2="BackgroundImageFix" result="effect1_dropShadow_292_993"/>
<feBlend mode="normal" in="SourceGraphic" in2="effect1_dropShadow_292_993" result="shape"/>
</filter>
<filter id="filter3_d_292_993" x="92.4854" y="13.4553" width="45.1406" height="77.0212" filterUnits="userSpaceOnUse" color-interpolation-filters="sRGB">
<feFlood flood-opacity="0" result="BackgroundImageFix"/>
<feColorMatrix in="SourceAlpha" type="matrix" values="0 0 0 0 0 0 0 0 0 0 0 0 0 0 0 0 0 0 127 0" result="hardAlpha"/>
<feOffset dx="-3" dy="1"/>
<feGaussianBlur stdDeviation="2"/>
<feComposite in2="hardAlpha" operator="out"/>
<feColorMatrix type="matrix" values="0 0 0 0 0 0 0 0 0 0 0 0 0 0 0 0 0 0 0.25 0"/>
<feBlend mode="normal" in2="BackgroundImageFix" result="effect1_dropShadow_292_993"/>
<feBlend mode="normal" in="SourceGraphic" in2="effect1_dropShadow_292_993" result="shape"/>
</filter>
<filter id="filter4_i_292_993" x="136" y="46" width="22" height="18" filterUnits="userSpaceOnUse" color-interpolation-filters="sRGB">
<feFlood flood-opacity="0" result="BackgroundImageFix"/>
<feBlend mode="normal" in="SourceGraphic" in2="BackgroundImageFix" result="shape"/>
<feColorMatrix in="SourceAlpha" type="matrix" values="0 0 0 0 0 0 0 0 0 0 0 0 0 0 0 0 0 0 127 0" result="hardAlpha"/>
<feOffset dx="4" dy="-1"/>
<feGaussianBlur stdDeviation="2.1"/>
<feComposite in2="hardAlpha" operator="arithmetic" k2="-1" k3="1"/>
<feColorMatrix type="matrix" values="0 0 0 0 0.0330992 0 0 0 0 0.248246 0 0 0 0 0.284104 0 0 0 0.33 0"/>
<feBlend mode="normal" in2="shape" result="effect1_innerShadow_292_993"/>
</filter>
<filter id="filter5_i_292_993" x="76" y="11" width="15" height="11" filterUnits="userSpaceOnUse" color-interpolation-filters="sRGB">
<feFlood flood-opacity="0" result="BackgroundImageFix"/>
<feBlend mode="normal" in="SourceGraphic" in2="BackgroundImageFix" result="shape"/>
<feColorMatrix in="SourceAlpha" type="matrix" values="0 0 0 0 0 0 0 0 0 0 0 0 0 0 0 0 0 0 127 0" result="hardAlpha"/>
<feOffset dx="4" dy="-1"/>
<feGaussianBlur stdDeviation="2.1"/>
<feComposite in2="hardAlpha" operator="arithmetic" k2="-1" k3="1"/>
<feColorMatrix type="matrix" values="0 0 0 0 0.0330992 0 0 0 0 0.248246 0 0 0 0 0.284104 0 0 0 0.33 0"/>
<feBlend mode="normal" in2="shape" result="effect1_innerShadow_292_993"/>
</filter>
<filter id="filter6_i_292_993" x="87" y="77" width="24" height="20" filterUnits="userSpaceOnUse" color-interpolation-filters="sRGB">
<feFlood flood-opacity="0" result="BackgroundImageFix"/>
<feBlend mode="normal" in="SourceGraphic" in2="BackgroundImageFix" result="shape"/>
<feColorMatrix in="SourceAlpha" type="matrix" values="0 0 0 0 0 0 0 0 0 0 0 0 0 0 0 0 0 0 127 0" result="hardAlpha"/>
<feOffset dx="4" dy="-1"/>
<feGaussianBlur stdDeviation="2.1"/>
<feComposite in2="hardAlpha" operator="arithmetic" k2="-1" k3="1"/>
<feColorMatrix type="matrix" values="0 0 0 0 0.0330992 0 0 0 0 0.248246 0 0 0 0 0.284104 0 0 0 0.33 0"/>
<feBlend mode="normal" in2="shape" result="effect1_innerShadow_292_993"/>
</filter>
<linearGradient id="paint0_linear_292_993" x1="73" y1="29.8369" x2="73" y2="88.8369" gradientUnits="userSpaceOnUse">
<stop offset="0.22" stop-color="#ACD3DE"/>
<stop offset="0.48" stop-color="#80B7BE"/>
<stop offset="0.9" stop-color="#D3D3D0"/>
</linearGradient>
<linearGradient id="paint1_linear_292_993" x1="132.781" y1="67.0496" x2="129.413" y2="86.869" gradientUnits="userSpaceOnUse">
<stop offset="0.03" stop-color="#B2CED2"/>
<stop offset="0.23" stop-color="#7DADB5"/>
<stop offset="0.525" stop-color="#80B7BE"/>
<stop offset="0.855" stop-color="#0C5A67"/>
</linearGradient>
<linearGradient id="paint2_linear_292_993" x1="122.173" y1="67.0172" x2="120.153" y2="73.4641" gradientUnits="userSpaceOnUse">
<stop offset="0.03" stop-color="#B2CED2"/>
<stop offset="0.23" stop-color="#7DADB5"/>
<stop offset="0.525" stop-color="#80B7BE"/>
<stop offset="0.855" stop-color="#0C5A67"/>
</linearGradient>
<linearGradient id="paint3_linear_292_993" x1="128.935" y1="43.6627" x2="118.04" y2="75.8457" gradientUnits="userSpaceOnUse">
<stop offset="0.03" stop-color="#B2CED2"/>
<stop offset="0.23" stop-color="#7DADB5"/>
<stop offset="0.525" stop-color="#80B7BE"/>
<stop offset="0.855" stop-color="#0C5A67"/>
</linearGradient>
<linearGradient id="paint4_linear_292_993" x1="129.786" y1="17.0999" x2="116.247" y2="53.066" gradientUnits="userSpaceOnUse">
<stop offset="0.03" stop-color="#B2CED2"/>
<stop offset="0.23" stop-color="#7DADB5"/>
<stop offset="0.525" stop-color="#80B7BE"/>
<stop offset="0.855" stop-color="#0C5A67"/>
</linearGradient>
</defs>
</svg>
